<svg width="1154" height="260" viewBox="0 0 1154 260" fill="none" xmlns="http://www.w3.org/2000/svg">
<g clip-path="url(#clip0_1339_2393)">
<rect width="1154" height="260" rx="20" fill="url(#paint0_linear_1339_2393)"/>
<rect x="306.465" y="-35.8457" width="50.5895" height="670.629" transform="rotate(30 306.465 -35.8457)" fill="white" fill-opacity="0.07"/>
<rect x="135.935" y="-35.8457" width="50.5895" height="670.629" transform="rotate(30 135.935 -35.8457)" fill="white" fill-opacity="0.07"/>
<rect x="701" y="-39.2148" width="64.0651" height="670.629" transform="rotate(30 701 -39.2148)" fill="white" fill-opacity="0.07"/>
<rect width="14.3084" height="670.629" transform="matrix(-0.866025 -0.5 -0.5 0.866025 121.706 -35.8457)" fill="white" fill-opacity="0.07"/>
<rect width="14.3084" height="670.629" transform="matrix(-0.866025 -0.5 -0.5 0.866025 469.253 -35.8457)" fill="white" fill-opacity="0.07"/>
<g filter="url(#filter0_f_1339_2393)">
<rect x="306.465" y="-35.8457" width="50.5895" height="670.629" transform="rotate(30 306.465 -35.8457)" fill="white" fill-opacity="0.15"/>
</g>
<g filter="url(#filter1_f_1339_2393)">
<rect width="128.437" height="670.629" transform="matrix(-0.866025 -0.5 -0.5 0.866025 568.091 21.2183)" fill="white" fill-opacity="0.15"/>
</g>
<rect x="1059.46" y="-35.8457" width="50.5895" height="670.629" transform="rotate(30 1059.46 -35.8457)" fill="white" fill-opacity="0.07"/>
<rect x="888.935" y="-35.8457" width="50.5895" height="670.629" transform="rotate(30 888.935 -35.8457)" fill="white" fill-opacity="0.07"/>
<rect width="14.3084" height="670.629" transform="matrix(-0.866025 -0.5 -0.5 0.866025 874.706 -35.8457)" fill="white" fill-opacity="0.07"/>
<rect width="14.3084" height="670.629" transform="matrix(-0.866025 -0.5 -0.5 0.866025 1222.25 -35.8457)" fill="white" fill-opacity="0.07"/>
<g filter="url(#filter2_f_1339_2393)">
<rect x="1059.46" y="-35.8457" width="50.5895" height="670.629" transform="rotate(30 1059.46 -35.8457)" fill="white" fill-opacity="0.15"/>
</g>
<g filter="url(#filter3_f_1339_2393)">
<rect width="128.437" height="670.629" transform="matrix(-0.866025 -0.5 -0.5 0.866025 1321.09 21.2183)" fill="white" fill-opacity="0.15"/>
</g>
</g>
<defs>
<filter id="filter0_f_1339_2393" x="-103.85" y="-110.846" width="529.126" height="756.077" filterUnits="userSpaceOnUse" color-interpolation-filters="sRGB">
<feFlood flood-opacity="0" result="BackgroundImageFix"/>
<feBlend mode="normal" in="SourceGraphic" in2="BackgroundImageFix" result="shape"/>
<feGaussianBlur stdDeviation="37.5" result="effect1_foregroundBlur_1339_2393"/>
</filter>
<filter id="filter1_f_1339_2393" x="46.5469" y="-118" width="596.544" height="795" filterUnits="userSpaceOnUse" color-interpolation-filters="sRGB">
<feFlood flood-opacity="0" result="BackgroundImageFix"/>
<feBlend mode="normal" in="SourceGraphic" in2="BackgroundImageFix" result="shape"/>
<feGaussianBlur stdDeviation="37.5" result="effect1_foregroundBlur_1339_2393"/>
</filter>
<filter id="filter2_f_1339_2393" x="649.15" y="-110.846" width="529.126" height="756.077" filterUnits="userSpaceOnUse" color-interpolation-filters="sRGB">
<feFlood flood-opacity="0" result="BackgroundImageFix"/>
<feBlend mode="normal" in="SourceGraphic" in2="BackgroundImageFix" result="shape"/>
<feGaussianBlur stdDeviation="37.5" result="effect1_foregroundBlur_1339_2393"/>
</filter>
<filter id="filter3_f_1339_2393" x="799.547" y="-118" width="596.544" height="795" filterUnits="userSpaceOnUse" color-interpolation-filters="sRGB">
<feFlood flood-opacity="0" result="BackgroundImageFix"/>
<feBlend mode="normal" in="SourceGraphic" in2="BackgroundImageFix" result="shape"/>
<feGaussianBlur stdDeviation="37.5" result="effect1_foregroundBlur_1339_2393"/>
</filter>
<linearGradient id="paint0_linear_1339_2393" x1="577" y1="260" x2="1181.05" y2="153.63" gradientUnits="userSpaceOnUse">
<stop stop-color="white" stop-opacity="0"/>
<stop offset="1" stop-color="white" stop-opacity="0.1"/>
</linearGradient>
<clipPath id="clip0_1339_2393">
<rect width="1154" height="260" rx="20" fill="white"/>
</clipPath>
</defs>
</svg>
