<svg width="352" height="550" viewBox="0 0 352 550" fill="none" xmlns="http://www.w3.org/2000/svg">
<g clip-path="url(#clip0_1361_2332)">
<rect width="352" height="550" fill="url(#paint0_linear_1361_2332)"/>
<rect x="378.937" y="-100.996" width="64" height="848.402" transform="rotate(30 378.937 -100.996)" fill="white" fill-opacity="0.1"/>
<rect x="163.201" y="-100.996" width="64" height="848.402" transform="rotate(30 163.201 -100.996)" fill="white" fill-opacity="0.1"/>
<rect width="18.1013" height="848.402" transform="matrix(-0.866025 -0.5 -0.5 0.866025 145.201 -100.996)" fill="white" fill-opacity="0.1"/>
<rect width="18.1013" height="848.402" transform="matrix(-0.866025 -0.5 -0.5 0.866025 584.877 -100.996)" fill="white" fill-opacity="0.1"/>
<g filter="url(#filter0_f_1361_2332)">
<rect x="378.937" y="-100.996" width="64" height="848.402" transform="rotate(30 378.937 -100.996)" fill="white" fill-opacity="0.25"/>
</g>
<g filter="url(#filter1_f_1361_2332)">
<rect width="162.483" height="848.402" transform="matrix(-0.866025 -0.5 -0.5 0.866025 709.915 -28.8049)" fill="white" fill-opacity="0.25"/>
</g>
</g>
<defs>
<filter id="filter0_f_1361_2332" x="-120.264" y="-175.996" width="629.626" height="916.738" filterUnits="userSpaceOnUse" color-interpolation-filters="sRGB">
<feFlood flood-opacity="0" result="BackgroundImageFix"/>
<feBlend mode="normal" in="SourceGraphic" in2="BackgroundImageFix" result="shape"/>
<feGaussianBlur stdDeviation="37.5" result="effect1_foregroundBlur_1361_2332"/>
</filter>
<filter id="filter1_f_1361_2332" x="69.9995" y="-185.046" width="714.916" height="965.979" filterUnits="userSpaceOnUse" color-interpolation-filters="sRGB">
<feFlood flood-opacity="0" result="BackgroundImageFix"/>
<feBlend mode="normal" in="SourceGraphic" in2="BackgroundImageFix" result="shape"/>
<feGaussianBlur stdDeviation="37.5" result="effect1_foregroundBlur_1361_2332"/>
</filter>
<linearGradient id="paint0_linear_1361_2332" x1="176" y1="6.71387e-06" x2="352" y2="275" gradientUnits="userSpaceOnUse">
<stop stop-color="#FFB34A"/>
<stop offset="1" stop-color="#E48400"/>
</linearGradient>
<clipPath id="clip0_1361_2332">
<rect width="352" height="550" fill="white"/>
</clipPath>
</defs>
</svg>
